<?xml version="1.0" encoding="UTF-8" standalone="no"?>
<svg
   xmlns="http://www.w3.org/2000/svg"
   viewBox="0 0 1247.2442 1247.2942"
   id="svg130"
   version="1.1">
  <metadata
     id="metadata136">
    <rdf:RDF>
      <cc:Work
         rdf:about="">
        <dc:format>image/svg+xml</dc:format>
        <dc:type
           rdf:resource="http://purl.org/dc/dcmitype/StillImage" />
        <dc:title></dc:title>
      </cc:Work>
    </rdf:RDF>
  </metadata>
  <defs
     id="defs134" />
  <path
     id="path140"
     d="m 608.11004,1247.0951 c -79.3219,-2.0103 -157.0065,-18.8501 -229.2716,-49.6992 -27.5683,-11.7687 -55.7864,-26.3638 -81.2884,-42.0445 -61.4237,-37.7683 -115.7664,-85.7596 -160.9303,-142.1213 -35.2007,-43.92821 -63.801395,-91.48696 -86.117095,-143.20005 -26.4098,-61.20029 -42.9172999,-127.36454 -48.4615999,-194.24 -1.65999999,-20.02426 -2.22029999,-36.57958 -1.99259999,-58.88 0.1699,-16.63222 0.3511,-21.93792 1.18609999,-34.72 C 9.8295447,450.60579 59.807345,325.79667 144.65334,224.03122 c 12.006,-14.40013 23.0337,-26.40661 38.0025,-41.37542 14.9688,-14.9688 26.9753,-25.99651 41.3754,-38.0025 101.7657,-84.846245 226.5742,-134.8237553 358.1588,-143.4188153 12.7821,-0.83492001 18.0878,-1.01616001 34.72,-1.18602001 22.3004,-0.22774996 38.8558,0.33252 58.88,1.99262001 94.7222,7.85288 186.1936,37.2632703 267.68,86.0658803 86.39126,51.740145 159.17066,123.681525 211.88286,209.443085 15.7049,25.55158 30.2763,53.72474 42.043,81.28842 41.4518,97.10214 57.4084,203.21747 46.5292,309.43158 -13.104,127.9345 -66.0193,249.13555 -151.1332,346.16665 -16.8304,19.187 -39.1682,41.5248 -58.3552,58.3552 -46.12906,40.4636 -98.79076,74.3772 -154.47766,99.4819 -85.1518,38.3881 -178.3867,57.1899 -271.849,54.8213 z m 41.6,-53.5417 c 19.6798,-0.9759 37.1861,-2.6113 55.04,-5.1415 70.6405,-10.011 138.7582,-33.3582 201.44,-69.0431 80.0066,-45.548 149.40146,-111.7128 199.11316,-189.8455 26.6829,-41.93776 48.5856,-89.13987 63.1686,-136.13325 13.1962,-42.52435 21.1549,-85.09389 24.2595,-129.76 1.3211,-19.0064 1.7173,-48.94416 0.8682,-65.6 -2.6006,-51.0121 -10.2427,-95.58717 -24.2213,-141.28 C 1135.592,346.31101 1069.1746,248.9674 978.19004,176.53806 c -80.926,-64.42212 -178.6299,-105.737745 -280.96,-118.808285 -23.6279,-3.01797 -42.0873,-4.27266 -67.04,-4.5567 -49.3715,-0.56201 -95.0648,4.58086 -142.2728,16.01309 -67.3345,16.30621 -134.3113,46.645205 -191.1672,86.594455 -28.7053,20.16951 -50.8445,38.82881 -76.4992,64.4747 -19.348,19.34134 -32.4697,34.14041 -47.8215,53.93473 -29.7771,38.39384 -54.2273,79.90205 -73.512695,124.8 -25.5302,59.43597 -40.5437,122.40477 -44.7099,187.52 -1.672,26.1313 -1.438,57.15478 0.6264,83.04 5.4068,67.7968 22.516,132.76979 51.275295,194.72 48.3664,104.18592 128.8188,192.75245 228.2416,251.26085 60.0632,35.346 126.0172,59.3612 194.4063,70.7871 24.8564,4.1528 50.0574,6.6362 76.6337,7.5518 9.2728,0.3194 35.2361,0.1341 44.32,-0.3164 z m -329.76,-412.96335 v -28.32 h 21.12 21.12 v 2.88 2.88 h -18.24 -18.24 v 8.48 8.48 h 11.2 11.2 v 2.88 2.88 h -11.2 -11.2 v 14.08 14.08 h -2.88 -2.88 z m 67.7311,28.00662 c -11.0323,-2.00736 -19.7454,-10.07283 -22.6503,-20.96662 -0.9775,-3.66589 -0.9878,-9.8031 -0.023,-13.69642 2.6003,-10.49267 10.3151,-18.21616 20.8622,-20.88566 3.3923,-0.85862 9.156,-0.79302 12.64,0.14384 5.2446,1.41037 9.491,3.94109 13.2905,7.9209 3.7741,3.95315 5.7401,7.612 7.0806,13.17756 0.813,3.37524 0.8917,8.74 0.1771,12.06506 -2.2666,10.54515 -9.8482,18.6849 -20.1238,21.60522 -2.6492,0.75289 -8.7242,1.09628 -11.2533,0.63612 z m 9.7528,-6.25612 c 7.3724,-1.90368 13.686,-8.36557 15.6406,-16.00813 0.774,-3.02643 0.8417,-8.02759 0.1484,-10.96848 -0.6468,-2.74359 -2.3027,-6.20042 -4.1172,-8.59475 -6.6458,-8.76954 -18.6997,-11.11434 -28.273,-5.49984 -1.0135,0.5944 -2.9242,2.1607 -4.2461,3.4807 -4.8819,4.87494 -7.2285,11.75398 -6.3663,18.66259 0.6693,5.36317 2.5621,9.19213 6.5297,13.20944 2.1008,2.12711 3.1062,2.86215 5.6047,4.09783 4.8715,2.40924 9.9227,2.95212 15.0792,1.62064 z m 35.2344,-21.6705 0.082,-28.24 h 17.28 17.28 l 2.5172,0.89024 c 5.8687,2.07552 9.2533,6.08019 10.2007,12.06976 1.1205,7.0839 -3.5176,14.4864 -10.7427,17.14547 -1.0863,0.39981 -1.9401,0.87875 -1.8973,1.06432 0.043,0.18554 3.5523,5.77626 7.7988,12.42378 4.2465,6.64755 7.7909,12.26643 7.8764,12.48643 0.1182,0.30445 -0.6456,0.4 -3.1972,0.4 h -3.3526 l -8.0752,-12.64 -8.0753,-12.64 h -10.8464 -10.8464 v 12.64 12.64 h -3.0417 -3.0418 z m 34.9847,-3.65485 c 2.1677,-0.73517 5.267,-3.83449 6.0022,-6.00214 1.3775,-4.0617 0.2856,-8.46685 -2.6276,-10.60058 -2.9877,-2.18825 -2.8554,-2.17165 -18.3576,-2.30733 l -14,-0.12249 v 9.78368 9.78371 h 13.703 c 11.9626,0 13.9033,-0.0679 15.28,-0.53485 z m 59.657,3.55747 v -28.3374 l 17.68,0.10604 c 17.2426,0.1034 17.732,0.12349 19.7831,0.81264 10.5122,3.53216 13.6859,14.80205 6.6136,23.48496 l -1.4562,1.78781 1.908,1.34557 c 7.7478,5.46387 8.3507,16.98915 1.2569,24.0263 -1.158,1.14871 -2.9694,2.54058 -4.0254,3.09306 -3.8277,2.00262 -4.0138,2.0184 -23.8062,2.0184 h -17.9538 z m 38.404,21.55008 c 2.3823,-1.17126 4.371,-3.19872 5.5168,-5.62422 0.7822,-1.65555 0.9503,-2.42323 0.9503,-4.33805 0,-4.16211 -1.8344,-6.9512 -5.7927,-8.80717 l -1.7984,-0.84326 -15.76,-0.0941 -15.76,-0.0941 v 10.42845 10.42844 l 15.44,-0.0943 15.44,-0.0944 z m -2.5256,-26.53596 c 3.9757,-1.86416 6.0467,-4.8634 6.0346,-8.73956 -0.012,-3.86057 -1.7985,-6.36329 -5.6311,-7.88899 -1.8577,-0.73952 -2.066,-0.75059 -16.2019,-0.86195 l -14.32,-0.1128 v 9.32419 9.32419 l 14.16,-0.10089 14.16,-0.10093 z m 28.4416,5.00105 V 752.2656 l 21.84,0.0822 21.84,0.0822 0.092,2.8 0.093,2.8 h -19.0524 -19.0525 v 8.48 8.48 h 10.88 10.88 v 2.88 2.88 h -10.88 -10.88 v 11.2 11.2 h 19.04 19.04 v 2.88 2.88 h -21.92 -21.92 z m 56.32,0.003 v -28.32 h 2.88 2.88 v 25.44 25.44 h 18.08 18.08 v 2.88 2.88 h -20.96 -20.96 z m 66.1311,28.00663 c -12.9924,-2.364 -22.1684,-12.5898 -23.4087,-26.08663 -0.2637,-2.87014 0.277,-7.16598 1.3215,-10.49974 2.695,-8.60128 9.2544,-15.33901 17.6641,-18.14429 6.0079,-2.00406 11.409,-1.99638 17.4442,0.025 8.1799,2.73955 14.6634,9.32019 17.4438,17.70541 5.1506,15.53286 -3.495,31.89763 -19.2115,36.36425 -2.6493,0.7529 -8.7242,1.09629 -11.2534,0.63613 z m 8.2689,-5.92378 c 8.0233,-1.42547 15.0189,-8.10752 17.1301,-16.36227 0.8494,-3.32112 0.8489,-8.12189 0,-11.44554 -2.7444,-10.73059 -12.963,-17.84099 -23.7043,-16.49417 -5.065,0.6351 -8.9965,2.60076 -12.7908,6.3952 -4.308,4.30806 -6.3939,9.51728 -6.3939,15.9679 0,4.17168 0.5044,6.27981 2.4521,10.24909 2.0953,4.26995 5.4207,7.60048 9.7196,9.73459 4.5823,2.27475 8.5645,2.84778 13.5883,1.9552 z m 89.76,-22.08364 v -28.32 h 21.76 21.76 v 2.88 2.88 h -18.88 -18.88 v 8.48 8.48 h 10.72 10.72 v 2.88 2.88 h -10.72 -10.72 v 11.2 11.2 h 18.88 18.88 v 2.88 2.88 h -21.76 -21.76 z m 54.72,-0.024 v -28.34416 l 13.68,0.1249 c 12.7005,0.11596 13.854,0.17312 16.1099,0.79824 13.1026,3.63081 21.7687,15.62633 20.9837,29.04515 -0.4078,6.97097 -3.0827,13.16909 -7.8423,18.17133 -4.0811,4.28931 -9.8106,7.28153 -15.7313,8.21568 -1.1597,0.18294 -7.6372,0.32921 -14.64,0.33056 l -12.56,0.003 v -28.34413 z m 29.6,21.51126 c 5.9824,-2.08969 10.3328,-5.85945 12.9792,-11.24713 1.7946,-3.65341 2.3475,-6.06496 2.3475,-10.24 0,-6.50455 -1.9684,-11.28976 -6.5328,-15.88154 -2.3212,-2.33513 -3.212,-2.98569 -5.7695,-4.21341 -1.6634,-0.79856 -3.7444,-1.62291 -4.6244,-1.83193 -0.9736,-0.2313 -5.6399,-0.44243 -11.92,-0.53936 l -10.32,-0.1593 v 22.61898 22.61894 l 10.64,-0.11552 10.64,-0.11549 z M 762.10924,780.5897 c -7.6996,-15.40026 -13.9992,-28.07226 -13.9992,-28.16 0,-0.0878 1.4048,-0.15952 3.1219,-0.15952 h 3.1219 l 10.8762,21.76 c 5.9819,11.968 10.9491,21.75993 11.0381,21.75984 0.089,-7e-5 5.0579,-9.75607 11.0419,-21.68 l 10.88,-21.67984 3.12,-0.0916 c 1.716,-0.0504 3.12,-0.0147 3.12,0.0795 0,0.32279 -27.9982,56.17207 -28.16,56.17207 -0.089,0 -6.4613,-12.60023 -14.1608,-28.00048 z m -552.7192,-69.31168 c -29.9192,-2.45405 -56.8495,-18.33984 -73.7255,-43.4896 -8.9965,-13.40717 -14.5075,-28.38954 -16.5393,-44.96397 -0.7302,-5.95709 -0.7364,-17.27379 -0.013,-23.1944 2.3323,-19.08016 9.6698,-36.82576 21.3026,-51.52 3.138,-3.96374 11.8334,-12.7201 15.6949,-15.80486 14.7535,-11.78576 33.1947,-19.24468 52,-21.03248 5.5695,-0.52948 17.4191,-0.18967 22.9558,0.6583 12.5587,1.92342 24.4929,6.21581 35.5242,12.77715 l 2.48,1.47511 v 8.72339 c 0,4.79785 -0.057,8.72339 -0.1266,8.72339 -0.07,0 -1.4994,-0.86278 -3.1772,-1.91731 -11.4072,-7.16954 -26.4556,-12.80461 -39.4162,-14.75987 -8.2653,-1.24695 -18.3265,-0.80663 -27.36,1.19734 -11.539,2.55981 -24.2429,8.7399 -33.7935,16.43968 -3.6986,2.98176 -10.4832,9.93043 -13.2825,13.60362 -9.6135,12.61446 -15.2983,26.21238 -17.457,41.75654 -0.8368,6.02602 -0.7543,17.55526 0.1689,23.59136 1.4474,9.46317 3.8488,17.23843 7.8845,25.52864 4.135,8.49392 8.7057,15.00253 15.3596,21.87162 7.1179,7.34793 13.641,12.14038 22.7695,16.72822 10.8935,5.47498 21.2529,8.06934 33.8705,8.4825 8.74,0.28617 16.2059,-0.64378 24.9555,-3.10842 l 3.6845,-1.03786 v -40.42803 -40.42803 h 7.68 7.68 v 45.55837 45.55837 l -4.88,1.93558 c -2.684,1.06454 -6.32,2.39056 -8.08,2.94662 -11.4034,3.60304 -24.4333,5.09088 -36.16,4.12903 z m 169.12,0.14115 c -19.6979,-1.35517 -37.333,-7.82435 -52.6369,-19.30912 -12.77,-9.58314 -22.6062,-21.47718 -29.7714,-36 -3.416,-6.92378 -5.3822,-12.15965 -7.1889,-19.14384 -2.5881,-10.00432 -3.3452,-16.85549 -3.1145,-28.18218 0.2362,-11.59193 1.4984,-19.0328 5.0267,-29.63398 4.9391,-14.83952 12.4265,-27.23312 23.1314,-38.28842 15.7275,-16.2423 35.0438,-26.0007 57.9936,-29.29782 1.8481,-0.2655 6.2049,-0.40941 12.16,-0.4016 7.9863,0.0106 9.9145,0.11165 13.8314,0.72598 25.7392,4.03696 48.3221,17.57309 63.9523,38.33284 9.7819,12.99222 16.4434,28.65766 19.0061,44.6959 1.9031,11.91059 1.6678,24.81718 -0.6634,36.38458 -6.982,34.64416 -31.7096,63.37142 -64.3111,74.71315 -12.27,4.26864 -25.7091,6.20985 -37.4153,5.40451 z m 16.96,-15.94189 c 37.4982,-5.63347 66.3899,-35.91549 70.8788,-74.28963 0.6133,-5.24291 0.6177,-14.79478 0.01,-19.99664 -3.3873,-28.95731 -21.0108,-54.10205 -46.728,-66.67053 -6.5469,-3.19958 -12.3074,-5.21555 -18.7356,-6.55689 -37.4917,-7.82308 -74.8361,10.95737 -91.6193,46.07516 -10.7493,22.49223 -11.2198,48.83869 -1.2793,71.63063 7.7685,17.81184 21.3068,32.42925 38.2537,41.30262 9.2081,4.82144 19.4433,7.89315 29.8605,8.96163 4.0401,0.4144 15.3365,0.14813 19.36,-0.45635 z m 110.9334,15.93943 c -0.1174,-0.11732 -0.2134,-45.26132 -0.2134,-100.32 V 510.99005 h 7.68 7.68 v 92.64 92.64 h 28.96 28.96 v 7.68 7.68 h -36.4266 c -20.0347,0 -36.5227,-0.096 -36.64,-0.21334 z m 134.3753,-0.13863 c -14.5147,-1.53005 -27.7145,-9.11785 -36.6209,-21.0512 -4.4796,-6.00214 -8.0338,-14.38793 -9.3425,-22.04278 -0.6085,-3.55939 -0.6253,-5.72016 -0.6253,-80.42586 v -76.76819 h 7.5136 7.5137 l 0.097,76.72 c 0.09,71.1848 0.1364,76.88131 0.6455,78.9559 1.911,7.78682 5.0828,13.63882 10.1504,18.72752 10.2436,10.28628 25.4775,13.60397 39.0772,8.5104 12.8663,-4.81888 22.0807,-16.68512 23.6325,-30.43382 0.2108,-1.86822 0.326,-29.15834 0.3277,-77.68 v -74.8 h 7.6905 7.6906 l -0.1103,76.88 -0.1103,76.88 -0.69,3.57427 c -2.0408,10.57021 -6.9368,20.09408 -14.0952,27.41792 -11.2106,11.46986 -26.9732,17.19859 -42.7467,15.53584 z m 197.4647,0.13863 c -0.1174,-0.11732 -0.2134,-45.26132 -0.2134,-100.32 V 510.99005 h 7.68 7.68 v 100.32 100.32 h -7.4666 c -4.1067,0 -7.5627,-0.096 -7.68,-0.21334 z m 50.0266,-100.10666 v -100.32 h 7.68 7.68 v 100.32 100.32 h -7.68 -7.68 z m 103.8015,88.56 c 0.7778,-41.09878 4.507,-72.05923 11.84316,-98.3249 7.78,-27.855 18.5177,-48.69148 37.2662,-72.3151 4.42,-5.56928 15.121,-18.24 15.4046,-18.24 0.385,0 12.1248,13.96896 17.3463,20.64 20.7537,26.51498 32.6644,53.0593 39.7738,88.64 4.509,22.56634 6.8254,47.42173 7.4119,79.53232 l 0.216,11.82768 h -7.6802 -7.6802 l -0.2064,-12.88 c -0.2793,-17.4264 -1.0334,-31.16099 -2.4817,-45.2 -0.645,-6.25242 -1.7807,-15.4433 -2.0661,-16.72 l -0.161,-0.72 h -44.4485 -44.4485 l -0.1835,0.88 c -0.4176,2.0016 -1.7932,13.51642 -2.3989,20.08 -1.3408,14.52835 -1.8792,24.98634 -2.1626,42 l -0.2092,12.56 h -7.67896 -7.6788 z m 105.59686,-82.4 c -5.195,-24.12576 -14.1944,-45.53968 -27.1439,-64.58822 -4.6873,-6.89501 -13.3522,-18.21178 -13.9441,-18.21178 -0.3028,0 -5.4717,6.50598 -9.6609,12.16 -13.2403,17.86976 -22.6607,37.48701 -28.7357,59.84 -1.4253,5.24448 -3.1937,12.88256 -3.1937,13.7943 0,0.59117 1.0011,0.6057 41.7268,0.6057 h 41.7267 z M 729.55004,611.10941 V 510.90874 l 9.2,0.17453 c 5.7349,0.10876 10.4053,0.35804 12.4,0.66182 15.9207,2.42451 27.4971,7.72726 36.4647,16.7033 3.9906,3.99436 6.9644,8.11593 9.4529,13.10166 6.8062,13.63565 7.7909,30.08931 2.7225,45.492 -2.0338,6.18067 -3.7092,9.46534 -8.0001,15.68432 -0.2389,0.34618 -0.1172,0.62662 0.48,1.10614 4.5424,3.64736 8.0924,7.74327 11.0909,12.79629 7.7046,12.98375 10.373,30.64653 6.9498,46.00387 -5.3191,23.86314 -22.9574,40.43124 -49.2407,46.2529 -7.5277,1.66736 -15.2245,2.41638 -24.88,2.42118 l -6.64,0.003 V 611.10931 Z m 21.4495,84.05952 c 24.3908,-3.24755 40.1367,-16.04019 44.531,-36.17888 0.9233,-4.2312 1.1468,-13.24582 0.4465,-18.0047 -2.432,-16.52653 -12.4887,-28.85245 -28.1243,-34.47028 l -2.8172,-1.01225 1.3772,-0.61639 c 2.772,-1.24054 7.1869,-4.44326 9.8526,-7.14739 6.6322,-6.72765 10.3486,-15.29904 11.2631,-25.97705 0.8377,-9.78036 -1.0565,-18.49085 -5.7249,-26.32647 -1.9825,-3.32752 -7.0532,-8.52653 -10.4935,-10.75901 -6.5367,-4.24182 -14.8428,-7.00115 -23.92,-7.94633 l -2.48,-0.25821 v 84.57904 84.57904 l 1.36,-0.006 c 0.748,-0.004 2.8763,-0.20813 4.7295,-0.45488 z m 227.1676,15.65152 c -17.3716,-2.70819 -34.4239,-14.14957 -47.5303,-31.89075 -11.7757,-15.93991 -18.3462,-36.01591 -18.3635,-56.10871 v -3.84902 l 3.2047,-1.69702 c 1.7625,-0.93338 4.4625,-2.52496 6,-3.53687 17.0932,-11.25056 31.1058,-33.02544 38.4882,-59.80864 3.3353,-12.10067 5.747,-28.98896 5.747,-40.24486 v -2.69453 h 7.68 7.68 v 2 c -0.01,3.37952 -0.6013,12.63347 -1.124,17.52 -2.8448,26.59565 -11.8247,52.06406 -25.0408,71.01987 -6.868,9.85075 -16.2985,19.29818 -24.7718,24.8161 l -2.4507,1.59597 0.1539,1.60403 c 1.0307,10.7423 3.8455,20.30585 8.8072,29.92403 10.487,20.32867 28.784,35.03021 45.3105,36.40675 l 2.8002,0.23325 0.086,7.6 0.086,7.6 -2.0058,-0.031 c -1.1032,-0.017 -3.2401,-0.22339 -4.7486,-0.45859 z"
     style="fill:#000000;stroke-width:0.31999999" />
</svg>
